<svg width="71" height="59" viewBox="0 0 71 59" fill="none" xmlns="http://www.w3.org/2000/svg">
<path d="M61.2488 19.8067C61.2488 19.3019 60.8395 18.8926 60.3346 18.8926H53.0213C52.5164 18.8926 52.1071 19.3019 52.1071 19.8067V25.9012C52.1071 26.406 52.5164 26.8153 53.0213 26.8153H60.3346C60.8395 26.8153 61.2488 26.406 61.2488 25.9012V19.8067Z" fill="#2453FF"/>
<path d="M50.2789 19.8067C50.2789 19.3019 49.8696 18.8926 49.3647 18.8926H42.0514C41.5465 18.8926 41.1372 19.3019 41.1372 19.8067V25.9012C41.1372 26.406 41.5465 26.8153 42.0514 26.8153H49.3647C49.8696 26.8153 50.2789 26.406 50.2789 25.9012V19.8067Z" fill="#2453FF"/>
<path d="M50.2789 10.3606C50.2789 9.8557 49.8696 9.44641 49.3647 9.44641H42.0514C41.5465 9.44641 41.1372 9.8557 41.1372 10.3606V16.455C41.1372 16.9599 41.5465 17.3692 42.0514 17.3692H49.3647C49.8696 17.3692 50.2789 16.9599 50.2789 16.455V10.3606Z" fill="#2453FF"/>
<path d="M39.3089 19.8067C39.3089 19.3019 38.8996 18.8926 38.3947 18.8926H31.0814C30.5766 18.8926 30.1673 19.3019 30.1673 19.8067V25.9012C30.1673 26.406 30.5766 26.8153 31.0814 26.8153H38.3947C38.8996 26.8153 39.3089 26.406 39.3089 25.9012V19.8067Z" fill="#2453FF"/>
<path d="M39.3089 10.3606C39.3089 9.8557 38.8996 9.44641 38.3947 9.44641H31.0814C30.5766 9.44641 30.1673 9.8557 30.1673 10.3606V16.455C30.1673 16.9599 30.5766 17.3692 31.0814 17.3692H38.3947C38.8996 17.3692 39.3089 16.9599 39.3089 16.455V10.3606Z" fill="#2453FF"/>
<path d="M28.3389 19.8067C28.3389 19.3019 27.9296 18.8926 27.4248 18.8926H20.1115C19.6066 18.8926 19.1973 19.3019 19.1973 19.8067V25.9012C19.1973 26.406 19.6066 26.8153 20.1115 26.8153H27.4248C27.9296 26.8153 28.3389 26.406 28.3389 25.9012V19.8067Z" fill="#2453FF"/>
<path d="M28.3389 10.3606C28.3389 9.8557 27.9296 9.44641 27.4248 9.44641H20.1115C19.6066 9.44641 19.1973 9.8557 19.1973 10.3606V16.455C19.1973 16.9599 19.6066 17.3692 20.1115 17.3692H27.4248C27.9296 17.3692 28.3389 16.9599 28.3389 16.455V10.3606Z" fill="#2453FF"/>
<path d="M28.3389 0.914163C28.3389 0.409285 27.9296 0 27.4248 0H20.1115C19.6066 0 19.1973 0.409285 19.1973 0.914163V7.00858C19.1973 7.51346 19.6066 7.92275 20.1115 7.92275H27.4248C27.9296 7.92275 28.3389 7.51346 28.3389 7.00858V0.914163Z" fill="#2453FF"/>
<path d="M17.369 19.8067C17.369 19.3019 16.9597 18.8926 16.4549 18.8926H9.14155C8.63667 18.8926 8.22739 19.3019 8.22739 19.8067V25.9012C8.22739 26.406 8.63667 26.8153 9.14155 26.8153H16.4549C16.9597 26.8153 17.369 26.406 17.369 25.9012V19.8067Z" fill="#2453FF"/>
<g clip-path="url(#clip0_14_1194)">
<path d="M59.9996 28.0343H52.7778C52.7168 28.0343 52.6559 28.0343 52.5949 28.0343H45.1597C45.0683 28.0343 44.9769 28.0343 44.916 28.0648V27.3639C44.916 25.9013 44.5503 24.6824 44.0932 24.6824C43.6361 24.6824 43.0876 25.8708 42.8438 27.3334L42.082 31.8738C41.8383 33.3365 42.8438 34.5249 44.337 34.5249H48.7859C49.243 34.5249 49.6696 34.4639 50.0657 34.342C49.9134 35.1038 49.2735 35.6828 48.4507 35.6828H42.2039C41.1984 35.6828 40.4366 34.7686 40.5889 33.7631L41.2288 29.954C41.3812 28.9485 40.6194 28.0343 39.6138 28.0343H8.47132C7.80093 28.0343 7.25243 28.4304 6.97818 29.0094L1.12754 37.9377C1.03612 38.0901 1.03612 38.2729 1.15801 38.4253L2.28548 39.7661C2.43784 39.9489 2.68162 39.9489 2.86445 39.827L6.8563 36.6884V55.7639C6.8563 56.6781 7.58763 57.4094 8.50179 57.4094H17.3387C18.2529 57.4094 18.9842 56.6781 18.9842 55.7639V49.121C18.9842 48.2068 19.7155 47.4755 20.6297 47.4755H42.6915C43.6057 47.4755 44.337 48.2068 44.337 49.121V55.7639C44.337 56.6781 45.0683 57.4094 45.9825 57.4094H54.8194C55.7335 57.4094 56.4649 56.6781 56.4649 55.7639V48.6334H51.7722C50.3095 48.6334 49.0906 47.4146 49.0906 45.9519V41.3506C49.0906 40.4669 49.5172 39.7051 50.1572 39.2176V44.7025C50.1572 46.1652 51.376 47.3841 52.8387 47.3841H60.0606C61.5233 47.3841 62.7421 46.1652 62.7421 44.7025V30.7463C62.6812 29.2227 61.4928 28.0343 59.9996 28.0343Z" fill="#2453FF"/>
<path fill-rule="evenodd" clip-rule="evenodd" d="M42.082 31.8738L42.8438 27.3334C43.0876 25.8708 43.6361 24.6824 44.0932 24.6824C44.5257 24.6824 44.8764 25.774 44.9128 27.1308C44.9149 27.2077 44.9159 27.2854 44.9159 27.3639V28.0648C44.9769 28.0343 45.0683 28.0343 45.1597 28.0343H59.9996C61.4927 28.0343 62.6812 29.2227 62.7421 30.7463V44.7025C62.7421 46.1652 61.5232 47.3841 60.0606 47.3841H52.8387C51.376 47.3841 50.1571 46.1652 50.1571 44.7025V39.2175C49.7449 39.5317 49.4211 39.9596 49.243 40.4606C49.1446 40.7373 49.0906 41.0362 49.0906 41.3506V45.9519C49.0906 47.4145 50.3095 48.6334 51.7721 48.6334H56.4649V55.7639C56.4649 56.6781 55.7335 57.4094 54.8194 57.4094H45.9824C45.0683 57.4094 44.337 56.6781 44.337 55.7639V49.121C44.337 48.2068 43.6056 47.4755 42.6915 47.4755H20.6297C19.7155 47.4755 18.9842 48.2068 18.9842 49.121V55.7639C18.9842 56.6781 18.2528 57.4094 17.3387 57.4094H8.50176C7.58759 57.4094 6.85626 56.6781 6.85626 55.7639V36.6884L2.86442 39.827C2.68158 39.9489 2.43781 39.9489 2.28545 39.766L1.15798 38.4253C1.03609 38.2729 1.03609 38.0901 1.12751 37.9377L6.97815 29.0094C7.2524 28.4304 7.8009 28.0343 8.47128 28.0343H39.6138C40.6194 28.0343 41.3812 28.9484 41.2288 29.954L40.5889 33.763C40.4365 34.7686 41.1983 35.6828 42.2039 35.6828H48.4507C48.7931 35.6828 49.1038 35.5825 49.3609 35.4105C49.7216 35.1693 49.9767 34.7868 50.0657 34.342C49.7318 34.4447 49.3763 34.5042 48.9992 34.5203C48.9288 34.5233 48.8577 34.5248 48.7859 34.5248H44.337C42.8438 34.5248 41.8382 33.3364 42.082 31.8738ZM42.3094 34.7686C41.9783 34.511 41.7056 34.189 41.5062 33.8202L41.4918 33.906C41.4238 34.3786 41.7824 34.7686 42.2039 34.7686H42.3094ZM1.58476 40.3532C1.58423 40.3526 1.5837 40.3519 1.58317 40.3513L0.451118 39.0051L0.444136 38.9963C0.0637013 38.5208 0.0724669 37.9193 0.343617 37.4674L0.352947 37.4518L6.18246 28.5558C6.60158 27.7256 7.43495 27.1201 8.47128 27.1201H39.6138C40.5317 27.1201 41.3079 27.5997 41.7545 28.3011L41.9421 27.1831M1.58476 40.3532C2.10683 40.9776 2.89964 40.9022 3.3715 40.5876L3.4013 40.5678L5.9421 38.57V55.7639C5.9421 57.1829 7.08271 58.3236 8.50176 58.3236H17.3387C18.7577 58.3236 19.8983 57.1829 19.8983 55.7639V49.121C19.8983 48.7117 20.2204 48.3897 20.6297 48.3897H42.6915C43.1007 48.3897 43.4228 48.7117 43.4228 49.121V55.7639C43.4228 57.1829 44.5634 58.3236 45.9824 58.3236H54.8194C56.2384 58.3236 57.379 57.1829 57.379 55.7639V48.2982H60.0606C62.0281 48.2982 63.6563 46.6701 63.6563 44.7025V30.728L63.6555 30.7098C63.5761 28.7233 62.0104 27.1201 59.9996 27.1201H45.827C45.809 26.4125 45.7131 25.7422 45.5504 25.2082C45.4615 24.9164 45.3371 24.6129 45.1569 24.3621C44.9923 24.1331 44.6452 23.7682 44.0932 23.7682C43.5829 23.7682 43.2329 24.085 43.0566 24.2831C42.856 24.5084 42.6929 24.7893 42.5606 25.0717C42.2925 25.6443 42.0743 26.3906 41.9423 27.1822" fill="white"/>
<path d="M70.6953 31.8738L69.9335 27.3334C69.6897 25.8708 69.1108 24.6824 68.6842 24.6824C68.2271 24.6824 67.8614 25.9013 67.8614 27.3639V28.5523C67.8614 30.015 66.6425 31.2339 65.1799 31.2339H63.9915C63.9 31.2339 63.8086 31.2339 63.7477 31.2339V34.4944C63.8391 34.4944 63.9305 34.4944 63.9915 34.4944H68.4709C69.9335 34.4944 70.9391 33.306 70.6953 31.8738Z" fill="#2453FF"/>
</g>
<defs>
<clipPath id="clip0_14_1194">
<rect width="71" height="34.7382" fill="white" transform="translate(0 23.7682)"/>
</clipPath>
</defs>
</svg>
