<?xml version="1.0" encoding="utf-8"?>
<!-- Generator: $$$/GeneralStr/196=Adobe Illustrator 27.6.0, SVG Export Plug-In . SVG Version: 6.00 Build 0)  -->
<svg version="1.1" id="Layer_1" xmlns="http://www.w3.org/2000/svg" xmlns:xlink="http://www.w3.org/1999/xlink" x="0px" y="0px"
	 viewBox="0 0 24 24" style="enable-background:new 0 0 24 24;" xml:space="preserve">
<style type="text/css">
	.st0{fill:#FFFFFF;}
</style>
<path class="st0" d="M5,20h14v-2H5V20z M8.3,16h7.4l-0.6-4H8.9L8.3,16z M3,22v-4c0-0.5,0.2-1,0.6-1.4S4.5,16,5,16h1.3l0.5-4H4v-2h16
	v2h-2.9l0.6,4H19c0.6,0,1,0.2,1.4,0.6S21,17.5,21,18v4H3z M6.8,10L5,2c0.6,0.4,1.1,0.8,1.7,1.2s1.2,0.5,1.9,0.5
	c0.7,0,1.3-0.2,1.8-0.5C11,2.9,11.5,2.5,12,2c0.5,0.5,1,0.9,1.5,1.2c0.6,0.3,1.2,0.5,1.8,0.5c0.7,0,1.3-0.2,1.9-0.5
	C17.9,2.8,18.5,2.4,19,2l-1.8,8h-2.1l1-4.3l-0.2,0c-0.1,0-0.3,0-0.6,0c-0.6,0-1.2-0.1-1.8-0.3S12.5,5,12,4.7c-0.5,0.3-1,0.6-1.6,0.8
	S9.3,5.7,8.7,5.7c-0.3,0-0.5,0-0.7,0l-0.2,0l1,4.3H6.8z"/>
</svg>
