<svg width="21" height="21" viewBox="0 0 21 21" fill="none" xmlns="http://www.w3.org/2000/svg">
<path d="M8.91565 15.9851L17.9157 6.98511L16.5094 5.53198L8.91565 13.1257L5.35315 9.56323L3.9469 10.9695L8.91565 15.9851ZM3.85315 3.93823C5.8219 1.96948 8.18128 0.985107 10.9313 0.985107C13.6813 0.985107 16.025 1.96948 17.9625 3.93823C19.9313 5.87573 20.9157 8.21948 20.9157 10.9695C20.9157 13.7195 19.9313 16.0789 17.9625 18.0476C16.025 19.9851 13.6813 20.9539 10.9313 20.9539C8.18128 20.9539 5.8219 19.9851 3.85315 18.0476C1.91565 16.0789 0.9469 13.7195 0.9469 10.9695C0.9469 8.21948 1.91565 5.87573 3.85315 3.93823Z" fill="#034A35"/>
</svg>
