<?xml version="1.0" encoding="utf-8"?>
<!-- Generator: $$$/GeneralStr/196=Adobe Illustrator 27.6.0, SVG Export Plug-In . SVG Version: 6.00 Build 0)  -->
<svg version="1.1" id="Layer_2_00000009581071068106331790000011697210888863174837_"
	 xmlns="http://www.w3.org/2000/svg" xmlns:xlink="http://www.w3.org/1999/xlink" x="0px" y="0px" viewBox="0 0 448.9 38.4"
	 style="enable-background:new 0 0 448.9 38.4;" xml:space="preserve">
<style type="text/css">
	.st0{fill:#FFFFFF;}
	.st1{fill:#30BA78;}
	.st2{font-family:'SUSE20240606-Light';}
	.st3{font-size:40px;}
</style>
<g id="Layer_1-2">
	<path class="st0" d="M85.9,26.3l3-3c2.2,2.2,4.2,3.1,6.5,3.1c3.2,0,5-1.6,5-4c0-6.4-14-2.8-14-12.5c0-5.2,3.9-8.5,9.8-8.5
		c3.6,0,6.6,1.4,8.5,3.5L101.6,8c-1.6-1.6-3.2-2.5-5.4-2.5c-3,0-4.9,1.5-4.9,3.9c0,6.1,14.1,2.1,14.1,12.2c0,5.4-4.1,8.8-10.2,8.8
		C91.1,30.6,88,28.9,85.9,26.3z"/>
	<path class="st0" d="M109.9,20.3V2h4.9v17.9c0,4.1,2.4,6.1,6,6.1s5.9-2,5.9-6.1V2h4.9v18.3c0,6.8-4.3,10.2-10.8,10.2
		S110,27.2,109.9,20.3L109.9,20.3z"/>
	<path class="st0" d="M136.1,26.3l3-3c2.2,2.2,4.2,3.1,6.5,3.1c3.2,0,5-1.6,5-4c0-6.4-14-2.8-14-12.5c0-5.2,3.9-8.5,9.8-8.5
		c3.6,0,6.6,1.4,8.5,3.5L151.8,8c-1.6-1.6-3.2-2.5-5.4-2.5c-3,0-4.9,1.5-4.9,3.9c0,6.1,14.1,2.1,14.1,12.2c0,5.4-4.1,8.8-10.2,8.8
		C141.3,30.6,138.3,28.9,136.1,26.3L136.1,26.3z"/>
	<path class="st0" d="M159.9,25.3V6.7c0-2.7,2-4.7,4.7-4.7h13.6v4.5h-12c-0.8,0-1.5,0.6-1.5,1.4v5.9h12.6v4.3h-12.6v6
		c0,0.8,0.6,1.4,1.5,1.4h12V30h-13.6C161.9,30,159.9,28,159.9,25.3z"/>
	<g id="Layer_1-3">
		<path class="st1" d="M70.9,10.8c0.7,3.1-2.1,6-5.2,5.2c-1.6-0.4-2.9-1.6-3.3-3.3c-0.7-3.1,2.1-6,5.2-5.2
			C69.3,7.9,70.5,9.2,70.9,10.8 M49.7,27.8c0.4,0.5,0.7,1,0.8,1.5c0.1,0.4,0.3,0.8,0.6,1c0,0,0,0,0.1,0c0.6,0.2,2.3,0.2,2.3,0.2h3
			c0.3,0,2.5,0,2.5-0.3c-0.3-1.2-1.7-1.4-2.8-2.1c-1-0.6-1.9-1.3-2.4-2.4c-0.2-0.6-0.1-2,0.3-2.5c0.3-0.4,0.7-0.6,1.1-0.7
			c0.5-0.1,1,0,1.5,0c0.6,0.1,1.2,0.2,1.8,0.2c1.2,0.1,2.3,0.2,3.5,0.2c1.9,0,3.9-0.4,5.7-1c1.3-0.4,2.5-1,3.6-1.8
			c1.2-0.9,0.9-0.8-0.3-0.7c-1.5,0.1-3,0.2-4.5,0.1c-1.4-0.1-2.8-0.2-4.1-0.9c-1-0.5-1.9-1-2.7-1.8c-0.1-0.1-0.2-0.5,0-0.7
			c0.2-0.2,0.7-0.1,0.8,0c1.4,1.2,3.5,2.1,5.6,2.2c1.2,0.1,2.3,0.1,3.4,0c0.6,0,1.4,0,2,0c0.3,0,1.1,0.1,1.3-0.2
			c0.1-0.1,0-0.2,0-0.3c-0.2-4.6-0.5-9.9-5.4-12.1c-3.6-1.7-9-4.2-11.3-5.3c-0.5-0.2-1.2,0.2-1.2,0.7c0,1.5,0.1,3.8,0.1,5.8
			c-1.1-1.1-3-1.8-4.4-2.5C49,3.7,47.4,3,45.7,2.5c-3.4-1-6.9-1.7-10.4-2c-4-0.4-8-0.2-12,0.6c-6.5,1.3-12.8,4.5-17.7,9
			c-3,2.8-5.3,6.8-5.4,10.8C0,26.6,1.6,29.7,4.5,32.8c4.7,5,14.8,5.7,18.9-0.2c1.8-2.7,2.2-6.3,0.9-9.3c-1.3-3-4.4-5.1-7.6-5.2
			c-2.5-0.1-5.2,1.2-6.2,3.5c-0.7,1.8-0.3,4,1,5.4c0.5,0.5,1.2,1,2,0.8c0.5-0.1,0.8-0.4,0.9-0.9c0.1-0.7-0.5-1.1-0.9-1.6
			c-0.7-1-0.5-2.4,0.3-3.2c0.7-0.7,1.7-0.9,2.7-0.9c0.9,0,1.8,0.2,2.6,0.6c1.1,0.6,1.8,1.8,2.1,3.1c0.8,3.8-2.3,6.8-6.4,7
			c-2.1,0.1-4.3-0.4-5.9-1.8C5.1,27,4,20.2,8.8,16.5c4.5-3.5,10.3-2.6,13.6-0.8c2.7,1.5,4.7,3.8,6.2,6.4c0.8,1.3,1.4,2.7,2,4.1
			c0.6,1.3,1.1,2.7,2.3,3.7c0.8,0.6,1.7,0.6,2.7,0.6h5.9c0.8,0,0.6-0.5,0.2-0.9c-0.8-0.8-1.9-1-2.9-1.2c-2.3-0.6-2.1-3.7-1.4-3.7
			c2.1,0,2.1,0.1,4,0c2.6,0,3.4-0.2,5.5,0.6C48,25.7,49,26.8,49.7,27.8"/>
	</g>
</g>
<path class="st1" d="M66.6,8.6c-1.8,0-3.2,1.4-3.2,3.2s1.4,3.2,3.2,3.2s3.2-1.4,3.2-3.2C69.8,10,68.4,8.6,66.6,8.6z M68.3,13.6
	c-0.6,0-1.1-0.5-1.1-1.1s0.5-1.1,1.1-1.1s1.1,0.5,1.1,1.1C69.5,13,68.9,13.6,68.3,13.6z"/>
<text transform="matrix(1 0 0 1 189.2827 30.1001)" class="st0 st2 st3">Planning Poker</text>
</svg>
