<?xml version="1.0" encoding="utf-8"?>
<!-- Generator: $$$/GeneralStr/196=Adobe Illustrator 27.6.0, SVG Export Plug-In . SVG Version: 6.00 Build 0)  -->
<svg version="1.1" id="Layer_1" xmlns="http://www.w3.org/2000/svg" xmlns:xlink="http://www.w3.org/1999/xlink" x="0px" y="0px"
	 viewBox="0 0 1578.9 548" style="enable-background:new 0 0 1578.9 548;" xml:space="preserve">
<style type="text/css">
	.st0{fill:#FFFFFF;stroke:#0C322C;stroke-width:4;stroke-linejoin:round;}
	.st1{fill:none;}
	.st2{fill:#EAFAF8;stroke:#0C322C;stroke-width:4;stroke-linejoin:round;}
	.st3{fill:#C8DAFC;}
	.st4{clip-path:url(#SVGID_00000026856855509415670600000007678060468362866065_);}
	.st5{fill:none;stroke:#0C322C;stroke-width:4;stroke-linejoin:round;}
	.st6{clip-path:url(#SVGID_00000047755271704676208430000000448145197381378183_);}
	.st7{fill:#FE7C3F;stroke:#0C322C;stroke-width:4;stroke-linejoin:round;}
	.st8{fill:#C8DAFC;stroke:#0C322C;stroke-width:4;stroke-linejoin:round;}
	.st9{fill:#FE7C3F;}
	.st10{clip-path:url(#SVGID_00000090257011324897715970000001927822705588607404_);}
	.st11{fill:#025937;stroke:#0C322C;stroke-width:4;stroke-linejoin:round;}
	.st12{fill:#30BA78;stroke:#0C322C;stroke-width:4;stroke-linejoin:round;}
	.st13{fill:#FFFFFF;}
	.st14{clip-path:url(#SVGID_00000010286809085839641440000009413721534591797686_);}
	.st15{fill:#83E1BE;stroke:#0C322C;stroke-width:4;stroke-linejoin:round;}
	.st16{clip-path:url(#SVGID_00000044142801890421080800000009624098763696598924_);}
	.st17{fill:#FF5A2B;stroke:#0C322C;stroke-width:4;stroke-linejoin:round;}
	.st18{fill:#83E1BE;}
	.st19{clip-path:url(#SVGID_00000124876304986763888640000009998851132498802586_);}
	.st20{fill:#42D29F;stroke:#0C322C;stroke-width:4;stroke-linejoin:round;}
	.st21{fill:#30BA78;}
	.st22{clip-path:url(#SVGID_00000011744776221792301180000009776097805855366580_);}
	.st23{fill:#C0EFDE;stroke:#0C322C;stroke-width:4;stroke-linejoin:round;}
	.st24{fill:#FFD3BD;}
	.st25{clip-path:url(#SVGID_00000137090381128825098090000006280242949402272950_);}
	.st26{fill:#DCDCDC;stroke:#0C322C;stroke-width:4;stroke-linejoin:round;}
	.st27{fill:#008657;stroke:#0C322C;stroke-width:4;stroke-linejoin:round;}
	.st28{fill:#FFB184;}
	.st29{clip-path:url(#SVGID_00000112618537765444507160000001060496686638009532_);}
	.st30{fill:#EFEFEF;stroke:#0C322C;stroke-width:4;stroke-linejoin:round;}
	.st31{fill:#2453FF;stroke:#0C322C;stroke-width:4;stroke-linejoin:round;}
	.st32{fill:#E6EDFE;stroke:#0C322C;stroke-width:4;stroke-linejoin:round;}
	.st33{fill:#FFEFE9;}
	.st34{clip-path:url(#SVGID_00000128467113232959530330000017858809662659164593_);}
	.st35{clip-path:url(#SVGID_00000169528576956370675090000017426665905477050776_);}
	.st36{clip-path:url(#SVGID_00000106147972183871343660000000781175170522207423_);}
	.st37{clip-path:url(#SVGID_00000119079552555982310440000000351122022941252516_);}
	.st38{clip-path:url(#SVGID_00000068655560947460401560000012714908566443596685_);}
	.st39{fill:#EFEFEF;}
	.st40{clip-path:url(#SVGID_00000034775438308635837420000005835990647352893621_);}
	.st41{fill:#EAFAF4;stroke:#0C322C;stroke-width:4;stroke-linejoin:round;}
	.st42{fill:#3C8EEF;stroke:#0C322C;stroke-width:4;stroke-linejoin:round;}
	.st43{clip-path:url(#SVGID_00000106131543052080689990000011100715296803075972_);}
	.st44{clip-path:url(#SVGID_00000145769933434280744390000002196558163814921119_);}
	.st45{clip-path:url(#SVGID_00000000185258868851357280000015517872813379995024_);}
	.st46{clip-path:url(#SVGID_00000072963778093530717710000011961445316640572331_);}
	.st47{fill:#BABABA;stroke:#0C322C;stroke-width:4;stroke-linejoin:round;}
	.st48{fill:#999999;stroke:#0C322C;stroke-width:4;stroke-linejoin:round;}
	.st49{clip-path:url(#SVGID_00000024682655065091709550000008605311403427260844_);}
	.st50{clip-path:url(#SVGID_00000140695882380532550980000006363467224904291232_);}
	.st51{fill:#C0EFDE;}
	.st52{clip-path:url(#SVGID_00000088107599294183149320000013167785635626444967_);}
	.st53{fill:#EAFAF4;}
	.st54{clip-path:url(#SVGID_00000080904801637699915740000000315346654949576339_);}
	.st55{clip-path:url(#SVGID_00000096036977611490398800000008823133556801077662_);}
</style>
<g id="BG">
	<path class="st0" d="M330.8,229.3c0-44.8-34.5-67.2-72.1-54.2c4-61-47.9-78.9-82.6-64.9c-4.7-41.2-36.1-81.7-98.5-80
		C17.9,31.9,3.8,73.7,1.2,78.6v150.7H330.8z"/>
	<g>
		<polygon class="st1" points="814.6,283.3 911.8,48.7 911.8,48.7 		"/>
		<polygon class="st1" points="897.7,407.7 1570.9,407.7 1570.9,407.7 		"/>
		<polygon class="st1" points="858.2,312.5 1122.1,48.7 1122.1,48.7 858.2,312.5 		"/>
		<rect x="319.3" y="-121.7" class="st1" width="0" height="691.2"/>
		<rect x="816.7" y="531.7" class="st1" width="0" height="11.1"/>
		<polygon class="st1" points="628.4,542.4 667.8,503 667.8,503 		"/>
		<rect x="982" y="397.5" class="st1" width="0" height="206.5"/>
		<polygon class="st1" points="858.2,502.9 897.7,542.4 897.7,542.4 858.2,502.9 		"/>
		<polygon class="st1" points="438,542.4 638.6,459.3 638.6,459.3 		"/>
		<polygon class="st1" points="707.3,542.4 711.5,532.2 711.5,532.2 		"/>
		<polygon class="st1" points="0,407.7 628.4,407.7 628.4,407.7 		"/>
		<polygon class="st2" points="887.5,459.3 887.5,459.3 763,407.7 		"/>
		<polygon class="st2" points="711.5,532.2 763,407.7 711.5,532.2 		"/>
		<polygon class="st2" points="667.8,502.9 763,407.7 667.8,502.9 		"/>
		<polygon class="st2" points="628.4,407.7 763,407.7 628.4,407.7 		"/>
		<polygon class="st2" points="858.2,502.9 858.2,502.9 763,407.7 		"/>
		<polygon class="st2" points="814.6,532.2 814.6,532.2 763,407.7 		"/>
		<polygon class="st2" points="638.6,459.3 763,407.7 638.6,459.3 		"/>
		<polygon class="st2" points="858.2,312.5 763,407.7 858.2,312.5 		"/>
		<polygon class="st2" points="667.8,312.5 763,407.7 667.8,312.5 		"/>
		<polygon class="st2" points="814.6,283.3 763,407.7 814.6,283.3 		"/>
		<polygon class="st2" points="763,273.1 763,407.7 763,273.1 		"/>
		<polygon class="st2" points="763,407.7 897.7,407.7 897.7,407.7 		"/>
		<polygon class="st2" points="638.6,356.2 763,407.7 638.6,356.2 		"/>
		<polygon class="st2" points="711.5,283.3 763,407.7 711.5,283.3 		"/>
		<polygon class="st2" points="763,542.4 763,542.4 763,407.7 		"/>
		<polygon class="st2" points="887.5,356.2 763,407.7 887.5,356.2 		"/>
		<g>
			<polygon class="st3" points="901.2,49.3 814.6,283.3 763,407.7 858.2,312.5 1126.2,49.3 			"/>
			<g>
				<defs>
					<polygon id="SVGID_1_" points="901.2,49.3 814.6,283.3 763,407.7 858.2,312.5 1126.2,49.3 					"/>
				</defs>
				<clipPath id="SVGID_00000099634982837559912410000008363921411023225734_">
					<use xlink:href="#SVGID_1_"  style="overflow:visible;"/>
				</clipPath>
				<g style="clip-path:url(#SVGID_00000099634982837559912410000008363921411023225734_);">
					<path class="st0" d="M1093.7,184.3c0-12.3-8.9-22.5-20.7-24.5c-4.9-19.5-22.5-33.9-43.5-33.9c-1.5,0-3,0.1-4.4,0.2
						c-4-8.2-12.5-13.9-22.3-13.9c-8.1,0-15.3,3.9-19.8,9.8h0c-13.5,0-25.2,7.7-30.8,19c-2.7-1-5.7-1.6-8.7-1.6
						c-8.8,0-16.6,4.6-21,11.5c-2.9-0.8-5.9-1.2-9-1.2c-19.1,0-34.5,15.5-34.5,34.5L1093.7,184.3L1093.7,184.3z"/>
				</g>
			</g>
			<polygon class="st5" points="901.2,49.3 814.6,283.3 763,407.7 858.2,312.5 1126.2,49.3 			"/>
		</g>
		<g>
			<polygon class="st3" points="1126.2,49.3 858.2,312.5 763,407.7 887.5,356.2 1261.2,209.8 1261.2,49.3 			"/>
			<g>
				<defs>
					<polygon id="SVGID_00000145738616228607909620000011370351223721448871_" points="1126.2,49.3 858.2,312.5 763,407.7 
						887.5,356.2 1261.2,209.8 1261.2,49.3 					"/>
				</defs>
				<clipPath id="SVGID_00000174573193048042034800000012402568552290033801_">
					<use xlink:href="#SVGID_00000145738616228607909620000011370351223721448871_"  style="overflow:visible;"/>
				</clipPath>
				<g style="clip-path:url(#SVGID_00000174573193048042034800000012402568552290033801_);">
					<path class="st0" d="M979.8,318.2c0-38.7,29.8-58,62.2-46.8c-3.4-52.7,41.3-68.1,71.3-56.1c4.1-35.6,31.1-70.6,85.1-69.1
						c51.6,1.4,63.4,37.2,65.6,41.5l0.3,129.5L979.8,318.2L979.8,318.2z"/>
					<path class="st0" d="M1093.7,184.3c0-12.3-8.9-22.5-20.7-24.5c-4.9-19.5-22.5-33.9-43.5-33.9c-1.5,0-3,0.1-4.4,0.2
						c-4-8.2-12.5-13.9-22.3-13.9c-8.1,0-15.3,3.9-19.8,9.8h0c-13.5,0-25.2,7.7-30.8,19c-2.7-1-5.7-1.6-8.7-1.6
						c-8.8,0-16.6,4.6-21,11.5c-2.9-0.8-5.9-1.2-9-1.2c-19.1,0-34.5,15.5-34.5,34.5L1093.7,184.3L1093.7,184.3z"/>
				</g>
			</g>
			<polygon class="st5" points="1126.2,49.3 858.2,312.5 763,407.7 887.5,356.2 1261.2,209.8 1261.2,49.3 			"/>
		</g>
		<polygon class="st7" points="887.5,356.2 766.2,409.3 1441.2,409.3 1441.2,139.3 		"/>
		<polygon class="st8" points="766.2,409.3 887.5,459.3 1081.2,544.3 1576.2,544.3 1576.2,409.3 		"/>
		<polygon class="st8" points="887.5,459.3 763,407.7 858.2,502.9 901.2,544.3 1081.2,544.3 		"/>
		<polygon class="st8" points="858.2,502.9 763,407.7 814.6,532.2 822,544.3 901.2,544.3 		"/>
		<polygon class="st2" points="817.8,534.1 766.2,409.7 766.2,544.3 822,544.3 		"/>
		<polygon class="st2" points="711.5,532.2 706.4,544.3 766.2,544.3 766.2,407.7 		"/>
		<polygon class="st8" points="667.8,502.9 631.2,544.3 706.4,544.3 711.5,532.2 763,407.7 		"/>
		<polygon class="st8" points="638.6,459.3 433.2,544.3 631.2,544.3 667.8,502.9 763,407.7 		"/>
		<polygon class="st8" points="1.2,409.3 1.2,544.3 433.2,544.3 638.6,459.3 766.2,409.3 		"/>
		<g>
			<polygon class="st9" points="638.6,356.2 1.2,94.3 1.2,409.3 628.4,409.3 763,407.7 			"/>
			<g>
				<defs>
					<polygon id="SVGID_00000113346043417826608640000011386588092004062650_" points="638.6,356.2 1.2,94.3 1.2,409.3 628.4,409.3 
						763,407.7 					"/>
				</defs>
				<clipPath id="SVGID_00000023985221966484255720000002433848260211789184_">
					<use xlink:href="#SVGID_00000113346043417826608640000011386588092004062650_"  style="overflow:visible;"/>
				</clipPath>
				<g style="clip-path:url(#SVGID_00000023985221966484255720000002433848260211789184_);">
					<g>
						<polygon class="st11" points="68.3,370.3 46.2,364.3 46.2,235.1 68.3,235.1 						"/>
						<path class="st12" d="M96.7,246c-0.4,0-0.7,0-1.1,0c1.6-3.2,2.5-6.8,2.5-10.6c0-13.2-10.7-23.9-23.9-23.9
							c-0.9,0-1.8,0.1-2.6,0.1c-4.3-6.4-11.6-10.6-19.8-10.6c-13.2,0-23.9,10.7-23.9,23.9c0,0.2,0,0.3,0,0.5
							c-1.6-0.3-3.2-0.5-4.9-0.5c-12.7,0-23,9.8-23.8,22.3c-9.4,3.2-16.1,12.1-16.1,22.6c0,12.9,10.2,23.4,23,23.9
							c2.3,10.8,11.9,18.8,23.3,18.8c8.2,0,15.5-4.2,19.8-10.5c4.3,4.3,10.3,7,16.8,7c10.7,0,19.7-7,22.8-16.6
							c2.5,0.9,5.2,1.4,7.9,1.4c13.2,0,23.9-10.7,23.9-23.9S109.9,246,96.7,246L96.7,246z"/>
					</g>
					<g>
						<path class="st13" d="M-175,274.3c0.4-28,19.9-50.1,45.5-54.4c10.7-42.3,49.1-73.6,94.9-73.6c3.3,0,6.5,0.2,9.7,0.5
							c8.8-17.9,27.3-30.2,48.7-30.2c17.6,0,33.3,8.4,43.2,21.3c0,0,0,0,0.1,0c29.4,0,54.9,16.8,67.3,41.2c5.9-2.2,12.3-3.4,19-3.4
							c19.2,0,36.2,10,45.8,25.1c6.3-1.7,12.9-2.6,19.7-2.6c41.6,0,75.3,33.5,75,76.2H-175z"/>
						<g>
							<defs>
								<path id="SVGID_00000159462183322542051580000012298240831853194670_" d="M-175,274.3c0.4-28,19.9-50.1,45.5-54.4
									c10.7-42.3,49.1-73.6,94.9-73.6c3.3,0,6.5,0.2,9.7,0.5c8.8-17.9,27.3-30.2,48.7-30.2c17.6,0,33.3,8.4,43.2,21.3
									c0,0,0,0,0.1,0c29.4,0,54.9,16.8,67.3,41.2c5.9-2.2,12.3-3.4,19-3.4c19.2,0,36.2,10,45.8,25.1c6.3-1.7,12.9-2.6,19.7-2.6
									c41.6,0,75.3,33.5,75,76.2H-175z"/>
							</defs>
							<clipPath id="SVGID_00000168837116250242595840000010549145541305010867_">
								<use xlink:href="#SVGID_00000159462183322542051580000012298240831853194670_"  style="overflow:visible;"/>
							</clipPath>
							<g style="clip-path:url(#SVGID_00000168837116250242595840000010549145541305010867_);">
								<g>
									<rect x="40.8" y="233.6" class="st11" width="22" height="129.2"/>
									<path class="st15" d="M96.7,246c-0.4,0-0.7,0-1.1,0c1.6-3.2,2.5-6.8,2.5-10.6c0-13.2-10.7-23.9-23.9-23.9
										c-0.9,0-1.8,0.1-2.6,0.1c-4.3-6.4-11.6-10.6-19.8-10.6c-13.2,0-23.9,10.7-23.9,23.9c0,0.2,0,0.3,0,0.5
										c-1.6-0.3-3.2-0.5-4.9-0.5c-12.7,0-23,9.8-23.8,22.3c-9.4,3.2-16.1,12.1-16.1,22.6c0,12.9,10.2,23.4,23,23.9
										c2.3,10.8,11.9,18.8,23.3,18.8c8.2,0,15.5-4.2,19.8-10.5c4.3,4.3,10.3,7,16.8,7c10.7,0,19.7-7,22.8-16.6
										c2.5,0.9,5.2,1.4,7.9,1.4c13.2,0,23.9-10.7,23.9-23.9S109.9,246,96.7,246L96.7,246z"/>
								</g>
							</g>
						</g>
						<path class="st5" d="M-175,274.3c0.4-28,19.9-50.1,45.5-54.4c10.7-42.3,49.1-73.6,94.9-73.6c3.3,0,6.5,0.2,9.7,0.5
							c8.8-17.9,27.3-30.2,48.7-30.2c17.6,0,33.3,8.4,43.2,21.3c0,0,0,0,0.1,0c29.4,0,54.9,16.8,67.3,41.2c5.9-2.2,12.3-3.4,19-3.4
							c19.2,0,36.2,10,45.8,25.1c6.3-1.7,12.9-2.6,19.7-2.6c41.6,0,75.3,33.5,75,76.2H-175z"/>
					</g>
				</g>
			</g>
			<polygon class="st5" points="638.6,356.2 1.2,94.3 1.2,409.3 628.4,409.3 763,407.7 			"/>
		</g>
		<polygon class="st0" points="667.8,312.5 496.2,139.3 361.2,139.3 361.2,240.4 638.6,356.2 763,407.7 		"/>
		<g>
			<circle class="st9" cx="763" cy="407.7" r="134.7"/>
			<g>
				<defs>
					<circle id="SVGID_00000017511797265023041820000016684379887773706401_" cx="763" cy="407.7" r="134.7"/>
				</defs>
				<clipPath id="SVGID_00000150823168570274051310000015187681041371129990_">
					<use xlink:href="#SVGID_00000017511797265023041820000016684379887773706401_"  style="overflow:visible;"/>
				</clipPath>
				<g style="clip-path:url(#SVGID_00000150823168570274051310000015187681041371129990_);">
					<polygon class="st17" points="959.8,409.3 566,409.3 566.2,541.9 959.9,541.9 					"/>
				</g>
			</g>
			<circle class="st5" cx="763" cy="407.7" r="134.7"/>
		</g>
	</g>
</g>
<g id="Graphic">
	<g>
		<g>
			<rect x="293.8" y="274.3" class="st18" width="45" height="268"/>
			<g>
				<defs>
					<rect id="SVGID_00000078725654410116041920000001486952124902042256_" x="293.8" y="274.3" width="45" height="268"/>
				</defs>
				<clipPath id="SVGID_00000023245217236563042580000008661897366054380931_">
					<use xlink:href="#SVGID_00000078725654410116041920000001486952124902042256_"  style="overflow:visible;"/>
				</clipPath>
				<g style="clip-path:url(#SVGID_00000023245217236563042580000008661897366054380931_);">
					<path class="st20" d="M322.9,422.9c-0.3-0.1-0.7-0.2-1-0.3c2.5-2.6,4.5-5.7,5.6-9.4c4.1-12.5-2.8-26-15.4-30.1
						c-0.9-0.3-1.7-0.5-2.5-0.7c-2.1-7.4-7.8-13.6-15.6-16.1c-12.5-4.1-26,2.8-30.1,15.4c0,0.2-0.1,0.3-0.1,0.5
						c-1.4-0.8-2.9-1.5-4.5-2c-12-3.9-24.9,2.3-29.5,13.9c-9.9,0.2-19.1,6.6-22.3,16.5c-4,12.3,2.5,25.4,14.5,29.8
						c-1.1,11,5.5,21.6,16.4,25.1c7.8,2.5,16,0.8,22.1-3.9c2.8,5.4,7.6,9.8,13.9,11.8c10.1,3.3,20.9-0.6,26.8-8.8
						c2.1,1.6,4.5,2.9,7.1,3.7c12.5,4.1,26-2.8,30.1-15.4C342.3,440.4,335.5,427,322.9,422.9L322.9,422.9z"/>
				</g>
			</g>
			<rect x="293.8" y="274.3" class="st5" width="45" height="268"/>
		</g>
		<rect x="338.8" y="274.3" class="st12" width="22.5" height="268"/>
		<rect x="136.2" y="341.8" class="st15" width="157.5" height="67.5"/>
	</g>
	<g>
		<g>
			<rect x="1396.2" y="94.3" class="st21" width="45" height="337.2"/>
			<g>
				<defs>
					<rect id="SVGID_00000023239382141211921360000011055209134201456271_" x="1396.2" y="94.3" width="45" height="337.2"/>
				</defs>
				<clipPath id="SVGID_00000161633915366848563910000017992504892618342333_">
					<use xlink:href="#SVGID_00000023239382141211921360000011055209134201456271_"  style="overflow:visible;"/>
				</clipPath>
				<g style="clip-path:url(#SVGID_00000161633915366848563910000017992504892618342333_);">
					<g>
						<rect x="1383.9" y="296.9" class="st11" width="22" height="134.9"/>
						<path class="st20" d="M1439.7,307.7c-0.4,0-0.7,0-1.1,0c1.6-3.2,2.5-6.8,2.5-10.6c0-13.2-10.7-23.9-23.9-23.9
							c-0.9,0-1.8,0-2.6,0.1c-4.3-6.4-11.6-10.5-19.8-10.5c-13.2,0-23.9,10.7-23.9,23.9c0,0.2,0,0.3,0,0.5c-1.6-0.3-3.2-0.5-4.9-0.5
							c-12.7,0-23,9.8-23.8,22.3c-9.4,3.2-16.2,12.1-16.2,22.6c0,12.9,10.2,23.4,23,23.9c2.3,10.8,11.9,18.8,23.3,18.8
							c8.2,0,15.5-4.2,19.8-10.5c4.3,4.3,10.3,7,16.8,7c10.7,0,19.7-7,22.8-16.6c2.5,0.9,5.2,1.4,7.9,1.4
							c13.2,0,23.9-10.7,23.9-23.9S1452.9,307.7,1439.7,307.7L1439.7,307.7z"/>
					</g>
				</g>
			</g>
			<rect x="1396.2" y="94.3" class="st5" width="45" height="337.2"/>
		</g>
		<rect x="1463.8" y="184.3" class="st15" width="67.5" height="245.8"/>
		<rect x="1441.2" y="184.3" class="st23" width="22.5" height="245.8"/>
		<g>
			<rect x="1261.2" y="4.3" class="st24" width="135" height="427.2"/>
			<g>
				<defs>
					<rect id="SVGID_00000144307618120049975620000012143449396539173563_" x="1261.2" y="4.3" width="135" height="427.2"/>
				</defs>
				<clipPath id="SVGID_00000057108466963135047350000009346551673291050673_">
					<use xlink:href="#SVGID_00000144307618120049975620000012143449396539173563_"  style="overflow:visible;"/>
				</clipPath>
				<g style="clip-path:url(#SVGID_00000057108466963135047350000009346551673291050673_);">
					<polygon class="st26" points="1167,3.8 858.2,312.5 763,407.7 887.5,356.2 1600.5,77.2 1742.1,2.2 					"/>
					<g>
						<rect x="1298.3" y="254.1" class="st27" width="30.8" height="180.9"/>
						<path class="st20" d="M1376.5,271.5c-0.5,0-1,0-1.5,0c2.2-4.5,3.5-9.5,3.5-14.9c0-18.5-15-33.4-33.4-33.4
							c-1.2,0-2.5,0.1-3.7,0.2c-6-8.9-16.2-14.8-27.7-14.8c-18.5,0-33.4,15-33.4,33.4c0,0.2,0,0.5,0,0.7c-2.2-0.5-4.5-0.7-6.9-0.7
							c-17.7,0-32.2,13.8-33.3,31.2c-13.1,4.5-22.6,17-22.6,31.6c0,18,14.3,32.7,32.2,33.4c3.2,15.1,16.6,26.4,32.7,26.4
							c11.5,0,21.7-5.8,27.7-14.7c6,6,14.4,9.7,23.6,9.7c14.9,0,27.5-9.8,31.8-23.3c3.5,1.2,7.2,1.9,11.1,1.9
							c18.5,0,33.4-15,33.4-33.4S1394.9,271.5,1376.5,271.5L1376.5,271.5z"/>
					</g>
				</g>
			</g>
			<rect x="1261.2" y="4.3" class="st5" width="135" height="427.2"/>
		</g>
		<g>
			<rect x="1171.2" y="139.3" class="st28" width="90" height="290.8"/>
			<g>
				<defs>
					<rect id="SVGID_00000098182376802525183770000010715046673395840389_" x="1171.2" y="139.3" width="90" height="290.8"/>
				</defs>
				<clipPath id="SVGID_00000155832901194729587770000017614615513134871204_">
					<use xlink:href="#SVGID_00000098182376802525183770000010715046673395840389_"  style="overflow:visible;"/>
				</clipPath>
				<g style="clip-path:url(#SVGID_00000155832901194729587770000017614615513134871204_);">
					<polygon class="st30" points="1121,49 857.1,312.9 761.9,408.1 886.3,356.5 1599.7,77.2 1628.8,49 1255.6,49 					"/>
				</g>
			</g>
			<rect x="1171.2" y="139.3" class="st5" width="90" height="290.8"/>
		</g>
		<rect x="1261.2" y="26.8" class="st31" width="135" height="22.5"/>
		<rect x="1261.2" y="94.3" class="st32" width="135" height="22.5"/>
		<g>
			<rect x="1261.2" y="161.8" class="st33" width="135" height="22.5"/>
			<g>
				<defs>
					<rect id="SVGID_00000057830071319570830410000013782151274937725591_" x="1261.2" y="161.8" width="135" height="22.5"/>
				</defs>
				<clipPath id="SVGID_00000166661386451048516780000002326632982148749501_">
					<use xlink:href="#SVGID_00000057830071319570830410000013782151274937725591_"  style="overflow:visible;"/>
				</clipPath>
				<g style="clip-path:url(#SVGID_00000166661386451048516780000002326632982148749501_);">
					<polygon class="st32" points="1167,3.8 858.2,312.5 763,407.7 887.5,356.2 1600.5,77.2 1742.1,2.2 					"/>
				</g>
			</g>
			<rect x="1261.2" y="161.8" class="st5" width="135" height="22.5"/>
		</g>
		<g>
			<rect x="1261.2" y="229.3" class="st33" width="135" height="22.5"/>
			<g>
				<defs>
					<rect id="SVGID_00000023247331552811971640000008656575056881767810_" x="1261.2" y="229.3" width="135" height="22.5"/>
				</defs>
				<clipPath id="SVGID_00000168103439453086274530000002561551226013153456_">
					<use xlink:href="#SVGID_00000023247331552811971640000008656575056881767810_"  style="overflow:visible;"/>
				</clipPath>
				<g style="clip-path:url(#SVGID_00000168103439453086274530000002561551226013153456_);">
					<g>
						<rect x="1298.3" y="254.1" class="st12" width="30.8" height="180.9"/>
						<path class="st23" d="M1376.5,271.5c-0.5,0-1,0-1.5,0c2.2-4.5,3.5-9.5,3.5-14.9c0-18.5-15-33.4-33.4-33.4
							c-1.2,0-2.5,0.1-3.7,0.2c-6-8.9-16.2-14.8-27.7-14.8c-18.5,0-33.4,15-33.4,33.4c0,0.2,0,0.5,0,0.7c-2.2-0.5-4.5-0.7-6.9-0.7
							c-17.7,0-32.2,13.8-33.3,31.2c-13.1,4.5-22.6,17-22.6,31.6c0,18,14.3,32.7,32.2,33.4c3.2,15.1,16.6,26.4,32.7,26.4
							c11.5,0,21.7-5.8,27.7-14.7c6,6,14.4,9.7,23.6,9.7c14.9,0,27.5-9.8,31.8-23.3c3.5,1.2,7.2,1.9,11.1,1.9
							c18.5,0,33.4-15,33.4-33.4S1394.9,271.5,1376.5,271.5L1376.5,271.5z"/>
					</g>
				</g>
			</g>
			<rect x="1261.2" y="229.3" class="st5" width="135" height="22.5"/>
		</g>
		<g>
			<rect x="1261.2" y="296.8" class="st33" width="135" height="22.5"/>
			<g>
				<defs>
					<rect id="SVGID_00000112618052336058727600000003974909069042703273_" x="1261.2" y="296.8" width="135" height="22.5"/>
				</defs>
				<clipPath id="SVGID_00000072981762483472810910000005851921511203264955_">
					<use xlink:href="#SVGID_00000112618052336058727600000003974909069042703273_"  style="overflow:visible;"/>
				</clipPath>
				<g style="clip-path:url(#SVGID_00000072981762483472810910000005851921511203264955_);">
					<g>
						<rect x="1298.3" y="254.1" class="st12" width="30.8" height="180.9"/>
						<path class="st23" d="M1376.5,271.5c-0.5,0-1,0-1.5,0c2.2-4.5,3.5-9.5,3.5-14.9c0-18.5-15-33.4-33.4-33.4
							c-1.2,0-2.5,0.1-3.7,0.2c-6-8.9-16.2-14.8-27.7-14.8c-18.5,0-33.4,15-33.4,33.4c0,0.2,0,0.5,0,0.7c-2.2-0.5-4.5-0.7-6.9-0.7
							c-17.7,0-32.2,13.8-33.3,31.2c-13.1,4.5-22.6,17-22.6,31.6c0,18,14.3,32.7,32.2,33.4c3.2,15.1,16.6,26.4,32.7,26.4
							c11.5,0,21.7-5.8,27.7-14.7c6,6,14.4,9.7,23.6,9.7c14.9,0,27.5-9.8,31.8-23.3c3.5,1.2,7.2,1.9,11.1,1.9
							c18.5,0,33.4-15,33.4-33.4S1394.9,271.5,1376.5,271.5L1376.5,271.5z"/>
					</g>
				</g>
			</g>
			<rect x="1261.2" y="296.8" class="st5" width="135" height="22.5"/>
		</g>
		<g>
			<rect x="1261.2" y="364.3" class="st33" width="135" height="22.5"/>
			<g>
				<defs>
					<rect id="SVGID_00000169537460822026256200000000078419483148839301_" x="1261.2" y="364.3" width="135" height="22.5"/>
				</defs>
				<clipPath id="SVGID_00000120544822060614600500000010365871766959404984_">
					<use xlink:href="#SVGID_00000169537460822026256200000000078419483148839301_"  style="overflow:visible;"/>
				</clipPath>
				<g style="clip-path:url(#SVGID_00000120544822060614600500000010365871766959404984_);">
					<g>
						<rect x="1298.3" y="254.1" class="st12" width="30.8" height="180.9"/>
						<path class="st23" d="M1376.5,271.5c-0.5,0-1,0-1.5,0c2.2-4.5,3.5-9.5,3.5-14.9c0-18.5-15-33.4-33.4-33.4
							c-1.2,0-2.5,0.1-3.7,0.2c-6-8.9-16.2-14.8-27.7-14.8c-18.5,0-33.4,15-33.4,33.4c0,0.2,0,0.5,0,0.7c-2.2-0.5-4.5-0.7-6.9-0.7
							c-17.7,0-32.2,13.8-33.3,31.2c-13.1,4.5-22.6,17-22.6,31.6c0,18,14.3,32.7,32.2,33.4c3.2,15.1,16.6,26.4,32.7,26.4
							c11.5,0,21.7-5.8,27.7-14.7c6,6,14.4,9.7,23.6,9.7c14.9,0,27.5-9.8,31.8-23.3c3.5,1.2,7.2,1.9,11.1,1.9
							c18.5,0,33.4-15,33.4-33.4S1394.9,271.5,1376.5,271.5L1376.5,271.5z"/>
					</g>
				</g>
			</g>
			<rect x="1261.2" y="364.3" class="st5" width="135" height="22.5"/>
		</g>
	</g>
	<path class="st12" d="M322.9,422.9c-0.3-0.1-0.7-0.2-1-0.3c2.5-2.6,4.5-5.7,5.6-9.4c4.1-12.5-2.8-26-15.4-30.1
		c-0.9-0.3-1.7-0.5-2.5-0.7c-2.1-7.4-7.8-13.6-15.6-16.1c-12.5-4.1-26,2.8-30.1,15.4c0,0.2-0.1,0.3-0.1,0.5c-1.4-0.8-2.9-1.5-4.5-2
		c-12-3.9-24.9,2.3-29.5,13.9c-9.9,0.2-19.1,6.6-22.3,16.5c-4,12.3,2.5,25.4,14.5,29.8c-1.1,11,5.5,21.6,16.4,25.1
		c7.8,2.5,16,0.8,22.1-3.9c2.8,5.4,7.6,9.8,13.9,11.8c10.1,3.3,20.9-0.6,26.8-8.8c2.1,1.6,4.5,2.9,7.1,3.7
		c12.5,4.1,26-2.8,30.1-15.4C342.3,440.4,335.5,427,322.9,422.9L322.9,422.9z"/>
	<g>
		<rect x="361.2" y="139.3" class="st24" width="135" height="403"/>
		<g>
			<defs>
				<rect id="SVGID_00000060019113996757483120000011951977600304639104_" x="361.2" y="139.3" width="135" height="403"/>
			</defs>
			<clipPath id="SVGID_00000121977214677079205550000001214569317496555442_">
				<use xlink:href="#SVGID_00000060019113996757483120000011951977600304639104_"  style="overflow:visible;"/>
			</clipPath>
			<g style="clip-path:url(#SVGID_00000121977214677079205550000001214569317496555442_);">
				<g>
					<rect x="473.8" y="247.1" class="st27" width="24.9" height="172"/>
					<path class="st20" d="M543.7,263.6c-0.5,0-0.9,0-1.4,0c2.1-4.3,3.3-9.1,3.3-14.1c0-17.6-14.2-31.8-31.8-31.8
						c-1.2,0-2.3,0.1-3.5,0.2c-5.7-8.5-15.4-14-26.4-14c-17.6,0-31.8,14.2-31.8,31.8c0,0.2,0,0.5,0,0.7c-2.1-0.4-4.3-0.7-6.6-0.7
						c-16.9,0-30.6,13.1-31.7,29.7c-12.5,4.3-21.5,16.1-21.5,30.1c0,17.1,13.6,31.1,30.6,31.8c3.1,14.3,15.8,25.1,31.1,25.1
						c11,0,20.6-5.5,26.3-14c5.8,5.7,13.7,9.2,22.4,9.2c14.2,0,26.2-9.3,30.3-22.1c3.3,1.2,6.9,1.8,10.6,1.8
						c17.6,0,31.8-14.2,31.8-31.8S561.2,263.6,543.7,263.6L543.7,263.6z"/>
				</g>
				<g>
					<polygon class="st39" points="667.8,312.5 493.3,138 359.1,138 359.1,240.4 638.6,356.2 763,407.7 					"/>
					<g>
						<defs>
							<polygon id="SVGID_00000147196588471255756170000009797724707807267208_" points="667.8,312.5 493.3,138 359.1,138 
								359.1,240.4 638.6,356.2 763,407.7 							"/>
						</defs>
						<clipPath id="SVGID_00000024724511833900681930000001643490608301979281_">
							<use xlink:href="#SVGID_00000147196588471255756170000009797724707807267208_"  style="overflow:visible;"/>
						</clipPath>
						<g style="clip-path:url(#SVGID_00000024724511833900681930000001643490608301979281_);">
							<path class="st23" d="M543.7,263.6c-0.5,0-0.9,0-1.4,0c2.1-4.3,3.3-9.1,3.3-14.1c0-17.6-14.2-31.8-31.8-31.8
								c-1.2,0-2.3,0.1-3.5,0.2c-5.7-8.5-15.4-14-26.4-14c-17.6,0-31.8,14.2-31.8,31.8c0,0.2,0,0.5,0,0.7c-2.1-0.4-4.3-0.7-6.6-0.7
								c-16.9,0-30.6,13.1-31.7,29.7c-12.5,4.3-21.5,16.1-21.5,30.1c0,17.1,13.6,31.1,30.6,31.8c3.1,14.3,15.8,25.1,31.1,25.1
								c11,0,20.6-5.5,26.3-14c5.8,5.7,13.7,9.2,22.4,9.2c14.2,0,26.2-9.3,30.3-22.1c3.3,1.2,6.9,1.8,10.6,1.8
								c17.6,0,31.8-14.2,31.8-31.8S561.2,263.6,543.7,263.6L543.7,263.6z"/>
						</g>
					</g>
					<polygon class="st5" points="667.8,312.5 493.3,138 359.1,138 359.1,240.4 638.6,356.2 763,407.7 					"/>
				</g>
				<line class="st5" x1="406.2" y1="138" x2="406.2" y2="542.4"/>
				<line class="st5" x1="451.2" y1="138" x2="451.2" y2="542.4"/>
			</g>
		</g>
		<rect x="361.2" y="139.3" class="st5" width="135" height="403"/>
	</g>
	<path class="st23" d="M493.7,409.3H1.2v133h627.1C628.4,468,568.1,407.7,493.7,409.3z"/>
	<rect x="359.1" y="409.3" class="st41" width="137.2" height="132.6"/>
	<rect x="293.8" y="409.3" class="st15" width="67.5" height="132.6"/>
	<rect x="224.4" y="521.8" class="st42" width="763.4" height="22.5"/>
	<path class="st12" d="M1554.4,438.8c-0.3-0.1-0.7-0.2-1-0.3c2.5-2.6,4.5-5.7,5.7-9.4c4.1-12.5-2.8-26-15.4-30.1
		c-0.8-0.3-1.7-0.5-2.6-0.7c-2.1-7.4-7.8-13.6-15.6-16.1c-12.6-4.1-26,2.8-30.1,15.4c-0.1,0.2-0.1,0.3-0.2,0.5
		c-1.4-0.8-2.9-1.5-4.5-2c-12-3.9-24.9,2.3-29.5,13.9c-9.9,0.2-19.1,6.6-22.3,16.5c-4,12.3,2.5,25.4,14.5,29.8
		c-1.1,11,5.5,21.6,16.4,25.1c7.8,2.5,16,0.8,22.1-3.9c2.8,5.4,7.6,9.8,13.9,11.8c10.1,3.3,20.9-0.6,26.8-8.8
		c2.1,1.6,4.5,2.9,7.2,3.7c12.6,4.1,26-2.8,30.1-15.4C1573.8,456.3,1567,442.8,1554.4,438.8L1554.4,438.8z"/>
	<g>
		<g>
			<path class="st39" d="M721.1,386.8h85.3v45H676.2v-0.1C676.2,407,696.4,386.8,721.1,386.8z"/>
			<g>
				<defs>
					<path id="SVGID_00000086670542373277767460000001471125260142059965_" d="M721.1,386.8h85.3v45H676.2v-0.1
						C676.2,407,696.4,386.8,721.1,386.8z"/>
				</defs>
				<clipPath id="SVGID_00000161597513935515418520000010173088142588859814_">
					<use xlink:href="#SVGID_00000086670542373277767460000001471125260142059965_"  style="overflow:visible;"/>
				</clipPath>
				<g style="clip-path:url(#SVGID_00000161597513935515418520000010173088142588859814_);">
					<rect x="677.3" y="397.7" class="st31" width="118.2" height="10.9"/>
				</g>
			</g>
			<path class="st5" d="M721.1,386.8h85.3v45H676.2v-0.1C676.2,407,696.4,386.8,721.1,386.8z"/>
		</g>
		<g>
			<rect x="816.9" y="386.8" class="st39" width="130.1" height="45"/>
			<g>
				<defs>
					<rect id="SVGID_00000070822503770503362120000011152379916159135874_" x="816.9" y="386.8" width="130.1" height="45"/>
				</defs>
				<clipPath id="SVGID_00000130617739581723455750000016276589230315735700_">
					<use xlink:href="#SVGID_00000070822503770503362120000011152379916159135874_"  style="overflow:visible;"/>
				</clipPath>
				<g style="clip-path:url(#SVGID_00000130617739581723455750000016276589230315735700_);">
					<rect x="828.1" y="397.7" class="st31" width="368.8" height="10.9"/>
				</g>
			</g>
			<rect x="816.9" y="386.8" class="st5" width="130.1" height="45"/>
		</g>
		<g>
			<rect x="946.2" y="386.8" class="st39" width="135" height="44.7"/>
			<g>
				<defs>
					<rect id="SVGID_00000183211514856248029650000016557875915701459585_" x="946.2" y="386.8" width="135" height="44.7"/>
				</defs>
				<clipPath id="SVGID_00000127003084907644160190000008805900297257465770_">
					<use xlink:href="#SVGID_00000183211514856248029650000016557875915701459585_"  style="overflow:visible;"/>
				</clipPath>
				<g style="clip-path:url(#SVGID_00000127003084907644160190000008805900297257465770_);">
					<rect x="828.1" y="397.7" class="st31" width="368.8" height="10.9"/>
				</g>
			</g>
			<rect x="946.2" y="386.8" class="st5" width="135" height="44.7"/>
		</g>
		<g>
			<rect x="1081.2" y="386.8" class="st39" width="126.1" height="44.7"/>
			<g>
				<defs>
					<rect id="SVGID_00000001641469753237183580000011324308430562445189_" x="1081.2" y="386.8" width="126.1" height="44.7"/>
				</defs>
				<clipPath id="SVGID_00000180362131529839281960000015379008147538070668_">
					<use xlink:href="#SVGID_00000001641469753237183580000011324308430562445189_"  style="overflow:visible;"/>
				</clipPath>
				<g style="clip-path:url(#SVGID_00000180362131529839281960000015379008147538070668_);">
					<rect x="828.1" y="397.7" class="st31" width="368.8" height="10.9"/>
				</g>
			</g>
			<rect x="1081.2" y="386.8" class="st5" width="126.1" height="44.7"/>
		</g>
		<rect x="806.4" y="390.9" class="st26" width="10.5" height="41"/>
	</g>
	<g>
		<polygon class="st47" points="1077.2,431.6 1.2,433.1 1.5,444.7 1077.2,443.5 		"/>
		<path class="st48" d="M1.2,443.5v10.9h272.5c11,0,20,9,20,20v70.1h22.5v-70.1c0-11,9-20,20-20h72.5c11,0,20,9,20,20v70.1h22.5
			v-70.1c0-11,9-20,20-20h72.5c11,0,20,9,20,20v70.1h22.5v-70.1c0-11,9-20,20-20h72.5c11,0,20,9,20,20v70.1h22.5v-70.1
			c0-11,9-20,20-20h72.5c11,0,20,9,20,20v70h22.5v-70c0-11.1,9-20,20-20l200.9,0.3v-11.2L1.2,443.5L1.2,443.5z"/>
	</g>
	<g>
		<path class="st18" d="M1.5,364.3h44.9c99.1,0,179.5,80.5,179.5,179.5v0.5H1.5V364.3L1.5,364.3z"/>
		<g>
			<defs>
				<path id="SVGID_00000142165295743143590230000001021607198521293734_" d="M1.5,364.3h44.9c99.1,0,179.5,80.5,179.5,179.5v0.5
					H1.5V364.3L1.5,364.3z"/>
			</defs>
			<clipPath id="SVGID_00000076580866178491850780000001356798174823035564_">
				<use xlink:href="#SVGID_00000142165295743143590230000001021607198521293734_"  style="overflow:visible;"/>
			</clipPath>
			<g style="clip-path:url(#SVGID_00000076580866178491850780000001356798174823035564_);">
				<rect x="1.5" y="476.6" class="st12" width="224.4" height="67.3"/>
				<rect x="1.2" y="454.1" class="st23" width="224.4" height="22.4"/>
				<rect x="1.2" y="409.2" class="st12" width="224.4" height="22.4"/>
			</g>
		</g>
		<path class="st5" d="M1.5,364.3h44.9c99.1,0,179.5,80.5,179.5,179.5v0.5H1.5V364.3L1.5,364.3z"/>
	</g>
	<path class="st12" d="M1154,413.5c0.3,0.1,0.7,0.2,1,0.3c-0.7-3.5-0.7-7.2,0.3-10.9c3.3-12.8,16.4-20.4,29.1-17.1
		c0.9,0.2,1.7,0.5,2.5,0.8c5.8-5.1,13.8-7.3,21.8-5.2c12.8,3.3,20.4,16.4,17.1,29.1c0,0.2-0.1,0.3-0.1,0.5c1.6,0.1,3.3,0.3,4.9,0.8
		c12.2,3.2,19.8,15.3,17.4,27.6c8.3,5.5,12.6,15.8,9.9,25.9c-3.2,12.5-15.8,20.1-28.2,17.3c-4.9,9.8-16.2,15.2-27.3,12.3
		c-8-2.1-13.9-7.9-16.5-15.2c-5.3,3.1-11.7,4.1-18.1,2.5c-10.3-2.7-17.3-11.7-17.8-21.8c-2.6,0.2-5.3,0-8-0.7
		c-12.8-3.3-20.4-16.4-17.1-29.1C1128.2,417.8,1141.3,410.2,1154,413.5L1154,413.5z"/>
	<path class="st26" d="M1216.4,274.3L1216.4,274.3c49.5,0,89.8,40.2,89.8,89.8v67.4h-89.8V274.3L1216.4,274.3z"/>
	<g>
		<g>
			<path class="st18" d="M1570.9,431.6H1059c-62.3,0-112.8,50.5-112.8,112.8l0,0h624.7V431.6z"/>
			<g>
				<defs>
					<path id="SVGID_00000049916282674874232920000016503254963508786594_" d="M1570.9,431.6H1059c-62.3,0-112.8,50.5-112.8,112.8
						l0,0h624.7V431.6z"/>
				</defs>
				<clipPath id="SVGID_00000037652978206485211510000002085848656387994786_">
					<use xlink:href="#SVGID_00000049916282674874232920000016503254963508786594_"  style="overflow:visible;"/>
				</clipPath>
				<g style="clip-path:url(#SVGID_00000037652978206485211510000002085848656387994786_);">
					<path class="st12" d="M1068.2,496c0.4,0,0.8,0.1,1.2,0.2c-1.4-3.9-2.1-8.3-1.6-12.7c1.7-15.4,15.5-26.5,30.9-24.8
						c1,0.1,2.1,0.3,3.1,0.5c5.8-6.9,14.8-10.8,24.4-9.8c15.4,1.7,26.5,15.5,24.8,30.9c0,0.2-0.1,0.4-0.1,0.6c1.9-0.2,3.8-0.2,5.8,0
						c14.8,1.6,25.6,14.4,24.9,29c10.5,4.9,17.3,16.2,15.9,28.4c-1.6,15-14.9,26-29.8,24.9c-4.1,12.3-16.3,20.5-29.6,19
						c-9.6-1-17.5-6.8-21.7-14.8c-5.6,4.5-12.9,6.8-20.5,6c-12.4-1.4-22.1-10.7-24.4-22.3c-3,0.7-6.2,0.9-9.4,0.6
						c-15.4-1.7-26.5-15.5-24.8-30.9C1038.9,505.4,1052.8,494.3,1068.2,496L1068.2,496z"/>
				</g>
			</g>
			<path class="st5" d="M1570.9,431.6H1059c-62.3,0-112.8,50.5-112.8,112.8l0,0h624.7V431.6z"/>
		</g>
		<rect x="1216.2" y="431.6" class="st23" width="90" height="112.8"/>
		<g>
			<rect x="1171.2" y="431.6" class="st51" width="45" height="112.8"/>
			<g>
				<defs>
					<rect id="SVGID_00000160876005037454678230000017921560698909892234_" x="1171.2" y="431.6" width="45" height="112.8"/>
				</defs>
				<clipPath id="SVGID_00000060008674548426179130000007730409690191324054_">
					<use xlink:href="#SVGID_00000160876005037454678230000017921560698909892234_"  style="overflow:visible;"/>
				</clipPath>
				<g style="clip-path:url(#SVGID_00000060008674548426179130000007730409690191324054_);">
					<path class="st15" d="M1068.2,496c0.4,0,0.8,0.1,1.2,0.2c-1.4-3.9-2.1-8.3-1.6-12.7c1.7-15.4,15.5-26.5,30.9-24.8
						c1,0.1,2.1,0.3,3.1,0.5c5.8-6.9,14.8-10.8,24.4-9.8c15.4,1.7,26.5,15.5,24.8,30.9c0,0.2-0.1,0.4-0.1,0.6c1.9-0.2,3.8-0.2,5.8,0
						c14.8,1.6,25.6,14.4,24.9,29c10.5,4.9,17.3,16.2,15.9,28.4c-1.6,15-14.9,26-29.8,24.9c-4.1,12.3-16.3,20.5-29.6,19
						c-9.6-1-17.5-6.8-21.7-14.8c-5.6,4.5-12.9,6.8-20.5,6c-12.4-1.4-22.1-10.7-24.4-22.3c-3,0.7-6.2,0.9-9.4,0.6
						c-15.4-1.7-26.5-15.5-24.8-30.9C1038.9,505.4,1052.8,494.3,1068.2,496L1068.2,496z"/>
				</g>
			</g>
			<rect x="1171.2" y="431.6" class="st5" width="45" height="112.8"/>
		</g>
		<g>
			<rect x="1306.2" y="431.5" class="st53" width="90" height="112.8"/>
			<g>
				<defs>
					<rect id="SVGID_00000122678261194815948580000006991341654717697701_" x="1306.2" y="431.5" width="90" height="112.8"/>
				</defs>
				<clipPath id="SVGID_00000057848120274760143550000012392781967568523156_">
					<use xlink:href="#SVGID_00000122678261194815948580000006991341654717697701_"  style="overflow:visible;"/>
				</clipPath>
				<g style="clip-path:url(#SVGID_00000057848120274760143550000012392781967568523156_);">
					<path class="st23" d="M1481.2,504.2c-0.4,0-0.7,0-1.1,0c1.6-3.2,2.5-6.8,2.5-10.6c0-13.2-10.7-23.9-23.9-23.9
						c-0.9,0-1.8,0-2.6,0.1c-4.3-6.4-11.6-10.5-19.8-10.5c-13.2,0-23.9,10.7-23.9,23.9c0,0.2,0,0.3,0,0.5c-1.6-0.3-3.2-0.5-4.9-0.5
						c-12.7,0-23,9.8-23.8,22.3c-9.4,3.2-16.2,12.1-16.2,22.6c0,12.9,10.2,23.4,23,23.9c2.3,10.8,11.9,18.8,23.3,18.8
						c8.2,0,15.5-4.2,19.8-10.5c4.3,4.3,10.3,7,16.8,7c10.7,0,19.7-7,22.8-16.6c2.5,0.9,5.2,1.4,7.9,1.4c13.2,0,23.9-10.7,23.9-23.9
						S1494.4,504.2,1481.2,504.2L1481.2,504.2z"/>
				</g>
			</g>
			<rect x="1306.2" y="431.5" class="st5" width="90" height="112.8"/>
		</g>
		<g>
			<rect x="1396.2" y="431.5" class="st51" width="180" height="112.8"/>
			<g>
				<defs>
					<rect id="SVGID_00000149345473435948462340000004300579951565447587_" x="1396.2" y="431.5" width="180" height="112.8"/>
				</defs>
				<clipPath id="SVGID_00000118362854353798268870000012378362701907355832_">
					<use xlink:href="#SVGID_00000149345473435948462340000004300579951565447587_"  style="overflow:visible;"/>
				</clipPath>
				<g style="clip-path:url(#SVGID_00000118362854353798268870000012378362701907355832_);">
					<path class="st12" d="M1481.2,504.2c-0.4,0-0.7,0-1.1,0c1.6-3.2,2.5-6.8,2.5-10.6c0-13.2-10.7-23.9-23.9-23.9
						c-0.9,0-1.8,0-2.6,0.1c-4.3-6.4-11.6-10.5-19.8-10.5c-13.2,0-23.9,10.7-23.9,23.9c0,0.2,0,0.3,0,0.5c-1.6-0.3-3.2-0.5-4.9-0.5
						c-12.7,0-23,9.8-23.8,22.3c-9.4,3.2-16.2,12.1-16.2,22.6c0,12.9,10.2,23.4,23,23.9c2.3,10.8,11.9,18.8,23.3,18.8
						c8.2,0,15.5-4.2,19.8-10.5c4.3,4.3,10.3,7,16.8,7c10.7,0,19.7-7,22.8-16.6c2.5,0.9,5.2,1.4,7.9,1.4c13.2,0,23.9-10.7,23.9-23.9
						S1494.4,504.2,1481.2,504.2L1481.2,504.2z"/>
					<g>
						<rect x="1559.9" y="452.4" class="st11" width="22" height="134.9"/>
						<path class="st12" d="M1615.8,464.8c-0.4,0-0.7,0-1.1,0c1.6-3.2,2.5-6.8,2.5-10.6c0-13.2-10.7-23.9-23.9-23.9
							c-0.9,0-1.8,0-2.6,0.1c-4.3-6.4-11.6-10.5-19.8-10.5c-13.2,0-23.9,10.7-23.9,23.9c0,0.2,0,0.3,0,0.5c-1.6-0.3-3.2-0.5-4.9-0.5
							c-12.7,0-23,9.8-23.8,22.3c-9.4,3.2-16.2,12.1-16.2,22.6c0,12.9,10.2,23.4,23,23.9c2.3,10.8,11.9,18.8,23.3,18.8
							c8.2,0,15.5-4.2,19.8-10.5c4.3,4.3,10.3,7,16.8,7c10.7,0,19.7-7,22.8-16.6c2.5,0.9,5.2,1.4,7.9,1.4
							c13.2,0,23.9-10.7,23.9-23.9S1629,464.8,1615.8,464.8L1615.8,464.8z"/>
					</g>
				</g>
			</g>
			<rect x="1396.2" y="431.5" class="st5" width="180" height="112.8"/>
		</g>
	</g>
	<path class="st0" d="M766.2,206.9c0-10.4-8.5-18.8-18.8-18.8c-0.1,0-0.2,0-0.3,0c0.2-1.5,0.3-3,0.3-4.5c0-18.7-15.1-33.8-33.8-33.8
		c-12.7,0-23.7,7-29.5,17.3c-1.4-0.2-2.8-0.4-4.3-0.4c-12.8,0-23.4,9.5-25.1,21.9c-1.5-0.4-3.1-0.6-4.7-0.6
		c-10.4,0-18.8,8.4-18.8,18.8L766.2,206.9L766.2,206.9z"/>
</g>
</svg>
