<?xml version="1.0" encoding="utf-8"?>
<!-- Generator: $$$/GeneralStr/196=Adobe Illustrator 27.6.0, SVG Export Plug-In . SVG Version: 6.00 Build 0)  -->
<svg version="1.1" id="Layer_2_00000009581071068106331790000011697210888863174837_"
	 xmlns="http://www.w3.org/2000/svg" xmlns:xlink="http://www.w3.org/1999/xlink" x="0px" y="0px" viewBox="0 0 448.9 38.4"
	 style="enable-background:new 0 0 448.9 38.4;" xml:space="preserve">
<style type="text/css">
	.st0{fill:#FFFFFF;}
	.st1{fill:#30BA78;}
	.st2{enable-background:new    ;}
</style>
<g id="Layer_1-2">
	<path class="st0" d="M85.9,26.3l3-3c2.2,2.2,4.2,3.1,6.5,3.1c3.2,0,5-1.6,5-4c0-6.4-14-2.8-14-12.5c0-5.2,3.9-8.5,9.8-8.5
		c3.6,0,6.6,1.4,8.5,3.5L101.6,8c-1.6-1.6-3.2-2.5-5.4-2.5c-3,0-4.9,1.5-4.9,3.9c0,6.1,14.1,2.1,14.1,12.2c0,5.4-4.1,8.8-10.2,8.8
		C91.1,30.6,88,28.9,85.9,26.3z"/>
	<path class="st0" d="M109.9,20.3V2h4.9v17.9c0,4.1,2.4,6.1,6,6.1s5.9-2,5.9-6.1V2h4.9v18.3c0,6.8-4.3,10.2-10.8,10.2
		S110,27.2,109.9,20.3L109.9,20.3z"/>
	<path class="st0" d="M136.1,26.3l3-3c2.2,2.2,4.2,3.1,6.5,3.1c3.2,0,5-1.6,5-4c0-6.4-14-2.8-14-12.5c0-5.2,3.9-8.5,9.8-8.5
		c3.6,0,6.6,1.4,8.5,3.5L151.8,8c-1.6-1.6-3.2-2.5-5.4-2.5c-3,0-4.9,1.5-4.9,3.9c0,6.1,14.1,2.1,14.1,12.2c0,5.4-4.1,8.8-10.2,8.8
		C141.3,30.6,138.3,28.9,136.1,26.3L136.1,26.3z"/>
	<path class="st0" d="M159.9,25.3V6.7c0-2.7,2-4.7,4.7-4.7h13.6v4.5h-12c-0.8,0-1.5,0.6-1.5,1.4v5.9h12.6v4.3h-12.6v6
		c0,0.8,0.6,1.4,1.5,1.4h12V30h-13.6C161.9,30,159.9,28,159.9,25.3z"/>
	<g id="Layer_1-3">
		<path class="st1" d="M70.9,10.8c0.7,3.1-2.1,6-5.2,5.2c-1.6-0.4-2.9-1.6-3.3-3.3c-0.7-3.1,2.1-6,5.2-5.2
			C69.3,7.9,70.5,9.2,70.9,10.8 M49.7,27.8c0.4,0.5,0.7,1,0.8,1.5c0.1,0.4,0.3,0.8,0.6,1c0,0,0,0,0.1,0c0.6,0.2,2.3,0.2,2.3,0.2h3
			c0.3,0,2.5,0,2.5-0.3c-0.3-1.2-1.7-1.4-2.8-2.1c-1-0.6-1.9-1.3-2.4-2.4c-0.2-0.6-0.1-2,0.3-2.5c0.3-0.4,0.7-0.6,1.1-0.7
			c0.5-0.1,1,0,1.5,0c0.6,0.1,1.2,0.2,1.8,0.2c1.2,0.1,2.3,0.2,3.5,0.2c1.9,0,3.9-0.4,5.7-1c1.3-0.4,2.5-1,3.6-1.8
			c1.2-0.9,0.9-0.8-0.3-0.7c-1.5,0.1-3,0.2-4.5,0.1c-1.4-0.1-2.8-0.2-4.1-0.9c-1-0.5-1.9-1-2.7-1.8c-0.1-0.1-0.2-0.5,0-0.7
			c0.2-0.2,0.7-0.1,0.8,0c1.4,1.2,3.5,2.1,5.6,2.2c1.2,0.1,2.3,0.1,3.4,0c0.6,0,1.4,0,2,0c0.3,0,1.1,0.1,1.3-0.2
			c0.1-0.1,0-0.2,0-0.3c-0.2-4.6-0.5-9.9-5.4-12.1c-3.6-1.7-9-4.2-11.3-5.3c-0.5-0.2-1.2,0.2-1.2,0.7c0,1.5,0.1,3.8,0.1,5.8
			c-1.1-1.1-3-1.8-4.4-2.5C49,3.7,47.4,3,45.7,2.5c-3.4-1-6.9-1.7-10.4-2c-4-0.4-8-0.2-12,0.6c-6.5,1.3-12.8,4.5-17.7,9
			c-3,2.8-5.3,6.8-5.4,10.8C0,26.6,1.6,29.7,4.5,32.8c4.7,5,14.8,5.7,18.9-0.2c1.8-2.7,2.2-6.3,0.9-9.3c-1.3-3-4.4-5.1-7.6-5.2
			c-2.5-0.1-5.2,1.2-6.2,3.5c-0.7,1.8-0.3,4,1,5.4c0.5,0.5,1.2,1,2,0.8c0.5-0.1,0.8-0.4,0.9-0.9c0.1-0.7-0.5-1.1-0.9-1.6
			c-0.7-1-0.5-2.4,0.3-3.2c0.7-0.7,1.7-0.9,2.7-0.9c0.9,0,1.8,0.2,2.6,0.6c1.1,0.6,1.8,1.8,2.1,3.1c0.8,3.8-2.3,6.8-6.4,7
			c-2.1,0.1-4.3-0.4-5.9-1.8C5.1,27,4,20.2,8.8,16.5c4.5-3.5,10.3-2.6,13.6-0.8c2.7,1.5,4.7,3.8,6.2,6.4c0.8,1.3,1.4,2.7,2,4.1
			c0.6,1.3,1.1,2.7,2.3,3.7c0.8,0.6,1.7,0.6,2.7,0.6h5.9c0.8,0,0.6-0.5,0.2-0.9c-0.8-0.8-1.9-1-2.9-1.2c-2.3-0.6-2.1-3.7-1.4-3.7
			c2.1,0,2.1,0.1,4,0c2.6,0,3.4-0.2,5.5,0.6C48,25.7,49,26.8,49.7,27.8"/>
	</g>
</g>
<path class="st1" d="M66.6,8.6c-1.8,0-3.2,1.4-3.2,3.2s1.4,3.2,3.2,3.2s3.2-1.4,3.2-3.2C69.8,10,68.4,8.6,66.6,8.6z M68.3,13.6
	c-0.6,0-1.1-0.5-1.1-1.1s0.5-1.1,1.1-1.1s1.1,0.5,1.1,1.1C69.5,13,68.9,13.6,68.3,13.6z"/>
<g class="st2">
	<path class="st0" d="M193.2,2.1h8.3c5.4,0,9.1,3,9.1,8.2s-3.7,8.2-9.1,8.2h-5.7v11.5h-2.6V2.1z M201.6,16.3c3.8,0,6.4-2.3,6.4-6
		c0-3.6-2.6-5.9-6.4-5.9h-5.8v11.9H201.6z"/>
	<path class="st0" d="M215.7,25.4V3.1H212V0.9h6.2v24.6c0,1.4,1,2.4,2.4,2.4h1.7v2.2h-1.8C217.6,30.1,215.7,28.2,215.7,25.4z"/>
	<path class="st0" d="M238,28c-1,1.6-3,2.5-5.9,2.5c-4.5,0-7.3-2.2-7.3-5.6c0-3.2,2.8-5.8,7.6-5.8c2.3,0,4.1,0.6,5.3,1.6v-3
		c0-3.3-1.7-4.8-4.8-4.8c-2.1,0-4.5,0.8-6.1,2.4l-1.2-1.8c1.7-2,4.6-3,7.4-3c4.4,0,7.3,2.3,7.3,7.1v6.1c0,2.1,0,4.2,0.1,6.4H238V28z
		 M232.5,28.5c3.2,0,5.1-1.5,5.1-3.7s-1.8-3.6-5.1-3.6s-5.2,1.4-5.2,3.6S229.3,28.5,232.5,28.5z"/>
	<path class="st0" d="M246.7,11h2.4v3.4c1.5-2.9,4.4-3.8,6.6-3.8c4.3,0,7.3,2.7,7.3,8.4v11.2h-2.6V19.3c0-4.5-2.3-6.3-5.3-6.3
		c-3.2,0-5.9,2.2-5.9,6.4v10.8h-2.6V11z"/>
	<path class="st0" d="M269.5,11h2.4v3.4c1.5-2.9,4.4-3.8,6.6-3.8c4.3,0,7.3,2.7,7.3,8.4v11.2h-2.6V19.3c0-4.5-2.3-6.3-5.3-6.3
		c-3.2,0-5.9,2.2-5.9,6.4v10.8h-2.6V11z"/>
	<path class="st0" d="M293.4,13.2h-3.8V11h6.4v19.1h-2.5V13.2z M293.3,2.2h2.7v4.4h-2.7V2.2z"/>
	<path class="st0" d="M302.6,11h2.4v3.4c1.5-2.9,4.4-3.8,6.6-3.8c4.3,0,7.3,2.7,7.3,8.4v11.2h-2.6V19.3c0-4.5-2.3-6.3-5.3-6.3
		c-3.2,0-5.9,2.2-5.9,6.4v10.8h-2.6V11z"/>
	<path class="st0" d="M323.8,35.9h11.3c2.1,0,3.4-1.1,3.4-2.9c0-1.7-1.3-2.7-3.4-2.7H329c-3,0-3.6-2.4-2.5-4.5l1.4-2.6
		c-2-1.2-3.2-3.2-3.2-5.6v-0.4c0-3.9,3.3-6.6,8-6.6c0.4,0,0.8,0,1.1,0l2-4.2h2.6l-2.4,4.6c2.9,1,4.8,3.2,4.8,6v0.5
		c0,4-3.3,6.8-8,6.8c-1,0-2-0.1-2.8-0.4l-1,2c-0.4,0.9-0.5,2.2,1.2,2.2h5.6c3.3,0,5.4,1.7,5.4,4.8c0,3-2.2,5.1-5.6,5.1h-11.5V35.9z
		 M332.6,22.4c3.3,0,5.6-2,5.6-4.8v-0.4c0-2.7-2.3-4.5-5.6-4.5c-3.3,0-5.6,1.9-5.6,4.6v0.3C327,20.4,329.3,22.4,332.6,22.4z"/>
	<path class="st0" d="M357.8,2.1h8.3c5.4,0,9.1,3,9.1,8.2s-3.7,8.2-9.1,8.2h-5.7v11.5h-2.6V2.1z M366.2,16.3c3.8,0,6.4-2.3,6.4-6
		c0-3.6-2.6-5.9-6.4-5.9h-5.8v11.9H366.2z"/>
	<path class="st0" d="M377.3,20.6v-0.3c0-5.7,4-9.7,9.4-9.7c5.4,0,9.3,4,9.3,9.6v0.4c0,5.8-3.9,9.9-9.3,9.9
		C381.3,30.5,377.3,26.4,377.3,20.6z M386.7,28.2c4,0,6.8-3.1,6.8-7.6v-0.4c0-4.3-2.8-7.3-6.8-7.3c-4,0-6.8,3.1-6.8,7.4v0.3
		C379.9,25.1,382.7,28.2,386.7,28.2z"/>
	<path class="st0" d="M401.2,0.9h2.6v19.8l9.6-9.8h3.2l-7.5,7.6l8.2,11.5h-3.2l-6.8-9.7l-3.6,3.6v6.1h-2.6V0.9z"/>
	<path class="st0" d="M417.8,20.6v-0.4c0-5.6,3.6-9.6,8.9-9.6s8.6,4.3,7.9,10.6h-14.3c0.3,4.1,3,6.9,7.1,6.9c2,0,3.8-0.5,4.9-1.6
		l1.4,1.6c-1.4,1.4-3.8,2.3-6.5,2.3C421.7,30.5,417.8,26.5,417.8,20.6z M432.2,19.1c0.1-3.9-2.2-6.3-5.5-6.3c-3.6,0-5.9,2.5-6.3,6.3
		H432.2z"/>
	<path class="st0" d="M439.2,11h2.5v3.2c0.9-2.5,3-3.2,5.4-3.2h1.7v2.5h-1.9c-3.2,0-5.1,1.6-5.1,5.1v11.6h-2.6V11z"/>
</g>
</svg>
