<svg width="24" height="24" viewBox="0 0 24 24" fill="none" xmlns="http://www.w3.org/2000/svg">
<path d="M9.89258 16.9702L18.8926 7.97021L17.4863 6.51709L9.89258 14.1108L6.33008 10.5483L4.92383 11.9546L9.89258 16.9702ZM4.83008 4.92334C6.79883 2.95459 9.1582 1.97021 11.9082 1.97021C14.6582 1.97021 17.002 2.95459 18.9395 4.92334C20.9082 6.86084 21.8926 9.20459 21.8926 11.9546C21.8926 14.7046 20.9082 17.064 18.9395 19.0327C17.002 20.9702 14.6582 21.939 11.9082 21.939C9.1582 21.939 6.79883 20.9702 4.83008 19.0327C2.89258 17.064 1.92383 14.7046 1.92383 11.9546C1.92383 9.20459 2.89258 6.86084 4.83008 4.92334Z" fill="black" fill-opacity="0.87"/>
</svg>
